<mxfile host="app.diagrams.net" modified="2024-06-01T07:34:25.089Z" agent="Mozilla/5.0 (X11; Ubuntu; Linux x86_64; rv:126.0) Gecko/20100101 Firefox/126.0" etag="zCeKqXinUlZbZOm_OOQY" version="24.4.13" type="github">
  <diagram name="Page-1" id="hqDCB_rI2GQA8nM3fOvg">
    <mxGraphModel dx="1966" dy="1129" grid="1" gridSize="10" guides="1" tooltips="1" connect="1" arrows="1" fold="1" page="1" pageScale="1" pageWidth="850" pageHeight="1100" math="0" shadow="0">
      <root>
        <mxCell id="0" />
        <mxCell id="1" parent="0" />
      </root>
    </mxGraphModel>
  </diagram>
</mxfile>
